<svg id="Warstwa_1" data-name="Warstwa 1" xmlns="http://www.w3.org/2000/svg" viewBox="0 0 1543.52 488.52"><defs><style>.cls-1{fill:#676770;}.cls-2{fill:#bf3a30;}</style></defs><title>logo_vgeo_grey</title><polygon class="cls-1" points="197.14 317.97 73.71 8.67 0 8.67 195.69 488.52 230.74 404.57 197.31 317.55 197.14 317.97"/><polygon class="cls-1" points="396.02 8.67 322.31 8.67 231.77 232.39 265.72 320.77 396.02 8.67"/><path class="cls-1" d="M646.72,334.28H758q-4.62,47.12-44.23,80.93-39.6,33.54-89.32,33.53-58.4,0-108.4-44.8-53.47-48.27-53.47-122.85,0-72.27,48-120.25Q558.55,112,629.38,112q78.92,0,133.83,73.13l48-46q-41.93-48-85.28-69.38-45.37-21.39-97.7-21.39-97.41,0-165.34,67.93Q394.94,184,395,281.09q0,95.1,66.77,163,66.78,67.63,160.43,67.64,96,0,158.12-69.95,27.45-31.23,39-67.07,11.85-38.73,11.85-89V271H646.72Z" transform="translate(-40.76 -48.39)"/><polygon class="cls-2" points="1063.18 264.52 1063.18 201.22 889.45 201.22 889.45 201.7 822.1 201.7 822.1 264.52 889.45 264.52 1063.18 264.52"/><polygon class="cls-2" points="889.45 391.68 889.45 391.88 822.1 391.88 822.1 454.98 1068.38 454.98 1068.38 391.68 889.45 391.68"/><polygon class="cls-2" points="1068.38 71.98 1068.38 8.67 822.1 8.67 822.1 71.98 889.45 71.98 1068.38 71.98"/><path class="cls-1" d="M1117.73,278.2q0-94.23,69.08-161.88,68.81-67.63,165.35-67.64,95.39,0,163.61,68.22,68.51,68.22,68.51,163.9,0,96.26-68.8,163.32-69.09,67.35-166.79,67.35-86.43,0-155.23-59.84Q1117.72,385.45,1117.73,278.2Zm67.93.86q0,74,49.72,121.7,49.42,47.7,114.18,47.69,70.25,0,118.51-48.56,48.27-49.14,48.28-119.67,0-71.4-47.7-119.67Q1421.24,112,1351.29,112q-69.66,0-117.65,48.56Q1185.66,208.53,1185.66,279.06Z" transform="translate(-40.76 -48.39)"/><circle class="cls-2" cx="1310.25" cy="231.83" r="70.87"/></svg>